# xmcd
#
# Track frame offsets:
# 300
# 17434
# 32737
# 49234
# 66037
# 86070
# 101794
# 122559
# 141276
# 159583
# 178086
#
# Disc length: 2659 seconds
#
#
# Revision: 0
# Processed by: cddbd v1.4PL0 Copyright (c) Steve Scherf et al.
# Submitted via: FreeRIP 2.52 
#
DISCID=940a5f0b
DTITLE=王筝 - 春风
DYEAR=2002
DGENRE=Acid Jazz
TTITLE0=春风
TTITLE1=糖纸
TTITLE2=假面舞会
TTITLE3=开错的窗
TTITLE4=六月
TTITLE5=明日午后
TTITLE6=你还要什么
TTITLE7=指尖的爱情
TTITLE8=时光
TTITLE9=爱是一种香
TTITLE10=寄居蟹
EXTD=
EXTT0=
EXTT1=
EXTT2=
EXTT3=
EXTT4=
EXTT5=
EXTT6=
EXTT7=
EXTT8=
EXTT9=
EXTT10=
PLAYORDER=
